<?xml version="1.0" encoding="UTF-8"?>
<svg width="512" height="512" viewBox="0 0 512 512" fill="none" xmlns="http://www.w3.org/2000/svg">
  <!-- Background -->
  <rect width="512" height="512" rx="128" fill="#1a2639"/>
  
  <!-- Game Controller Base -->
  <path d="M396 256C396 331.6 334.6 393 259 393C183.4 393 122 331.6 122 256C122 180.4 183.4 119 259 119C334.6 119 396 180.4 396 256Z" fill="#3a5199"/>
  
  <!-- D-Pad -->
  <rect x="162" y="236" width="60" height="20" rx="5" fill="#f8f9fa"/>
  <rect x="182" y="216" width="20" height="60" rx="5" fill="#f8f9fa"/>
  
  <!-- Buttons -->
  <circle cx="330" cy="236" r="15" fill="#c1121f"/>
  <circle cx="350" cy="256" r="15" fill="#2d6a4f"/>
  <circle cx="310" cy="256" r="15" fill="#4361ee"/>
  <circle cx="330" cy="276" r="15" fill="#f8f9fa"/>
  
  <!-- Joystick -->
  <circle cx="240" cy="256" r="25" stroke="#f8f9fa" stroke-width="8" fill="#0d1b2a"/>
  
  <!-- Highlights -->
  <path d="M259 119C334.6 119 396 180.4 396 256C396 331.6 334.6 393 259 393" stroke="#4361ee" stroke-width="12" stroke-linecap="round"/>
</svg>